<?xml version="1.0" encoding="utf-8"?>
<!-- Generator: Adobe Illustrator 21.0.0, SVG Export Plug-In . SVG Version: 6.00 Build 0)  -->
<svg version="1.1" id="Layer_1" xmlns="http://www.w3.org/2000/svg" xmlns:xlink="http://www.w3.org/1999/xlink" x="0px" y="0px"
	 viewBox="0 0 96 96" style="enable-background:new 0 0 96 96;" xml:space="preserve">
<style type="text/css">
	.st0{fill:#FFFF00;}
</style>
<g id="XMLID_1_">
	<path id="XMLID_5_" class="st0" d="M52.263195,48l21.1380959-21.1380997c1.4649048-1.4610996,1.4649048-3.8327007,0-5.2975998
		C66.2977905,14.4533005,56.9090004,10.5344,46.9655952,10.5344C26.3070946,10.5344,9.5,27.3376999,9.5,48
		s16.8070946,37.4655991,37.4655952,37.4655991c9.9434052,0,19.3321953-3.9188995,26.4356956-11.033699
		c1.4612045-1.4610977,1.4612045-3.8327026,0-5.2975006L52.263195,48z M41.3456955,36.7528
		c-3.1021004,0-5.6198006-2.517601-5.6198006-5.6198006s2.5177002-5.6197987,5.6198006-5.6197987
		c3.1021996,0,5.6198997,2.5175991,5.6198997,5.6197987S44.4478951,36.7528,41.3456955,36.7528z"/>
	<path class="st0" d="M85.7399597,48c0,3.1099854-2.5199585,5.6199951-5.6199951,5.6199951
		c-3.1099854,0-5.6199951-2.5100098-5.6199951-5.6199951c0-3.1000366,2.5100098-5.6199951,5.6199951-5.6199951
		C83.2200012,42.3800049,85.7399597,44.8999634,85.7399597,48z"/>
</g>
</svg>
